<?xml version="1.0" encoding="UTF-8"?>
<svg id="Camada_2" data-name="Camada 2" xmlns="http://www.w3.org/2000/svg" viewBox="0 0 1321.39 897.56">
  <defs>
    <style>
      .cls-1 {
        fill: #6e0d25;
        stroke: #000;
        stroke-miterlimit: 10;
      }
    </style>
  </defs>
  <g id="Camada_3" data-name="Camada 3">
    <g>
      <g>
        <polygon class="cls-1" points="1026.29 320.71 1063.01 305.53 1099.73 290.35 1099.74 290.35 1136.46 275.16 1136.47 275.16 1173.18 259.98 1209.91 244.8 1246.63 229.62 1283.35 214.44 1320.08 199.25 1283.37 184.02 1246.67 168.79 1209.95 183.97 1173.23 199.15 1136.5 214.34 1136.49 214.34 1099.78 229.52 1063.05 244.7 1026.33 259.88 989.61 275.06 952.88 290.25 989.58 305.48 1026.29 320.71"/>
        <polygon class="cls-1" points="1246.37 594.58 1209.68 579.35 1172.97 564.12 1136.27 548.89 1099.57 533.66 1062.87 518.43 1026.16 503.19 989.44 518.38 952.71 533.56 989.42 548.79 1026.12 564.02 1062.83 579.26 1099.52 594.48 1136.23 609.72 1172.93 624.95 1209.64 640.18 1246.34 655.42 1283.07 640.23 1319.79 625.05 1283.08 609.82 1246.37 594.58"/>
      </g>
      <polygon class="cls-1" points="769.24 396.57 732.54 381.34 695.84 366.1 659.14 350.87 622.43 335.64 585.73 320.41 585.72 320.41 549.03 305.18 512.32 289.94 475.63 274.71 438.92 259.48 402.22 244.25 365.51 229.02 328.82 213.78 328.81 213.78 292.11 198.55 255.4 183.32 218.71 168.09 213.64 165.99 226.23 232.06 255.36 244.15 292.07 259.38 328.77 274.61 365.47 289.84 365.48 289.84 402.18 305.08 438.87 320.31 475.58 335.54 512.28 350.77 548.98 366.01 548.99 366.01 585.69 381.24 622.39 396.47 585.67 411.65 548.95 426.83 548.94 426.83 512.22 442.02 512.21 442.02 475.5 457.2 438.77 472.38 402.05 487.56 365.33 502.74 328.6 517.93 291.88 533.11 284.18 536.3 300.28 620.85 328.54 609.17 365.27 593.99 401.99 578.81 438.72 563.62 475.44 548.44 512.16 533.26 548.88 518.08 548.89 518.08 585.6 502.9 585.61 502.9 622.33 487.71 622.34 487.71 659.06 472.53 695.78 457.35 732.5 442.17 769.23 426.98 805.95 411.8 769.24 396.57"/>
      <polygon class="cls-1" points="1136.38 396.82 1099.67 381.59 1062.97 366.36 1026.26 351.12 989.57 335.89 952.86 320.66 916.16 305.43 879.46 290.19 879.45 290.19 842.76 274.96 769.34 244.5 732.65 229.27 695.94 214.03 659.25 198.8 659.24 198.8 622.53 183.57 585.83 168.34 549.13 153.11 512.44 137.87 512.43 137.87 475.73 122.64 439.02 107.41 402.32 92.18 365.62 76.94 365.61 76.94 328.92 61.72 328.91 61.72 292.21 46.48 255.51 31.25 218.81 16.02 182.18 .82 207.35 132.95 218.72 137.67 255.43 152.91 292.12 168.14 328.83 183.37 365.53 198.6 365.54 198.6 402.24 213.83 438.94 229.07 475.64 244.3 512.35 259.53 549.04 274.76 585.75 290 622.45 305.22 622.46 305.22 659.16 320.46 695.86 335.69 732.56 350.92 769.26 366.16 769.27 366.16 805.96 381.39 805.97 381.39 879.37 411.85 916.08 427.08 952.77 442.31 989.48 457.55 1026.19 472.78 1062.91 457.6 1099.63 442.42 1136.36 427.23 1173.08 412.05 1136.38 396.82"/>
      <polygon class="cls-1" points="952.76 472.73 916.05 457.5 879.35 442.27 842.65 427.03 805.92 442.21 769.2 457.4 732.48 472.58 695.75 487.76 659.03 502.94 622.31 518.12 585.58 533.31 548.86 548.49 512.13 563.67 475.41 578.85 438.69 594.03 401.96 609.22 365.24 624.4 328.52 639.58 291.79 654.76 255.07 669.95 218.35 685.13 181.62 700.31 144.9 715.49 116.4 727.27 1.35 896.46 34.65 882.7 71.37 867.51 108.1 852.33 144.82 837.15 181.54 821.97 218.27 806.79 254.99 791.6 291.71 776.42 328.44 761.24 365.16 746.06 401.88 730.88 438.61 715.69 475.33 700.51 512.06 685.33 548.78 670.15 585.5 654.96 622.23 639.78 658.95 624.6 695.67 609.42 732.4 594.24 769.12 579.05 805.84 563.87 842.57 548.69 879.29 533.51 916.02 518.33 952.74 503.14 989.46 487.96 952.76 472.73"/>
    </g>
  </g>
</svg>